<svg width="144" height="167" viewBox="0 0 144 167" fill="none" xmlns="http://www.w3.org/2000/svg">
<g clip-path="url(#clip0_92_715)">
<g clip-path="url(#clip1_92_715)">
<g clip-path="url(#clip2_92_715)">
<path d="M21.0503 89.8167C41.4647 87.1074 61.9612 85.0667 82.505 83.6988C59.0354 106.244 37.8813 131.211 19.4976 158.068C16.5609 162.36 21.697 167.582 26.0314 164.696C37.0801 157.346 47.9038 149.671 58.3077 141.448C75.0103 128.248 90.5852 113.688 106.127 99.1489L131.996 74.9604C132.493 74.4938 132.92 73.9479 133.158 73.3018C134.305 70.2258 130.655 68.2853 127.741 67.5856C114.098 64.2897 99.9277 63.2268 85.9399 64.4418C98.0656 46.3387 114.249 24.8201 121.422 3.7732C122.148 1.64809 119.726 -0.134612 117.912 1.17219C104.733 10.7052 93.8078 24.439 81.4067 34.9871C65.439 48.5732 49.544 59.6649 17.6619 80.7401C13.2677 83.6418 15.82 90.503 21.0405 89.8091L21.0503 89.8167Z" fill="#CAF55E"/>
</g>
</g>
</g>
<defs>
<clipPath id="clip0_92_715">
<rect width="126" height="152.78" fill="white" transform="translate(0 15.3555) rotate(-6.99998)"/>
</clipPath>
<clipPath id="clip1_92_715">
<rect width="126" height="152.78" fill="white" transform="translate(0 15.3555) rotate(-6.99998)"/>
</clipPath>
<clipPath id="clip2_92_715">
<rect width="126" height="152.787" fill="white" transform="translate(0 15.3516) rotate(-6.99998)"/>
</clipPath>
</defs>
</svg>
