<svg width="23" height="25" viewBox="0 0 23 25" fill="none" xmlns="http://www.w3.org/2000/svg">
<g clip-path="url(#clip0_92_939)">
<g clip-path="url(#clip1_92_939)">
<path d="M19.8155 2.17257C22.6115 4.64836 22.4177 10.5218 21.0696 13.7695C19.81 16.8044 16.6204 18.3956 13.7964 16.5821C12.297 15.6192 11.4949 13.7555 11.1701 11.9804L10.8659 13.0383C9.883 16.7728 5.84018 19.0904 2.91792 15.9843C-0.288073 12.5762 0.339457 4.98614 4.21843 2.3675C5.64799 1.40263 7.98087 1.24904 9.39825 2.30177C10.7457 3.30242 11.218 5.14299 11.5212 6.77367C11.627 6.47102 11.7061 6.1544 11.818 5.85338C13.0872 2.45146 16.5366 -0.730813 19.8155 2.17257ZM20.7191 8.20486C20.7426 6.88398 20.447 5.49542 19.8399 4.34311C19.6428 3.96953 19.3887 3.57643 19.0881 3.29006C16.781 1.09316 14.4868 3.17063 13.3517 5.50323C12.618 7.01057 12.1982 8.77629 12.239 10.4824L12.7402 9.92794C14.4206 8.21917 17.2818 7.30149 19.5608 7.8303C19.9537 7.92141 20.3371 8.07468 20.7191 8.20486ZM8.96349 3.7258C8.2719 2.97733 7.1889 2.65256 6.22762 2.88361C3.32335 3.58131 1.91546 7.60478 2.07989 10.4665C2.09301 10.6947 2.1409 10.9358 2.1409 11.1664C2.66165 10.5349 3.176 9.95361 3.82123 9.46095C5.36458 8.28198 7.45187 7.61845 9.34728 7.95363C9.68409 8.01318 10.0126 8.13358 10.3467 8.20518C10.2994 7.57191 10.2625 6.93475 10.1191 6.31678C9.92265 5.47004 9.54342 4.35385 8.96349 3.7258ZM17.9432 9.05159C16.625 9.08576 15.2821 9.49057 14.175 10.2546C13.3867 10.7987 13.1329 11.31 12.5447 11.9989C12.5212 12.0266 12.4623 12.0392 12.456 12.0507C12.4288 12.0994 12.6969 12.9911 12.7421 13.1187C13.2384 14.5193 14.6168 16.0901 16.1278 16.0474C17.662 16.0042 18.7642 15.3458 19.5729 13.9625C19.9576 13.3042 20.2401 12.5039 20.4141 11.7522C19.7859 12.3214 19.0083 12.8909 18.2626 12.1762C17.4616 11.4083 17.615 10.0291 17.9432 9.05159ZM8.02845 9.18176C6.19193 9.3201 4.38652 10.226 3.17783 11.7034L2.49325 12.6627C2.84501 14.0555 3.86973 15.5994 5.19801 16.0572C6.11109 16.3719 7.08457 16.0874 7.84206 15.5076C8.61205 14.9182 9.18406 13.9183 9.523 12.9891C7.62881 13.1723 7.48848 10.5501 8.02845 9.18176Z" fill="#1D1D1B" stroke="#1D1D1B" stroke-width="0.92"/>
<path d="M16.8318 21.5513C14.8538 23.8068 11.8003 24.5397 9.03482 23.6965C7.85359 23.3363 6.43135 22.5751 5.60186 21.5996C5.32546 21.2744 4.92613 20.8146 5.3816 20.418C5.48593 20.3268 5.80321 20.2129 5.93072 20.238C6.1455 20.2803 6.28461 20.5279 6.44141 20.6704C7.24161 21.3984 8.08788 22.0168 9.10316 22.3545C11.5617 23.1727 14.3537 22.5455 16.1133 20.5081C16.3757 20.2045 16.4429 19.8403 16.9218 19.9045C17.2132 19.9435 17.5399 20.4075 17.431 20.7098C17.3635 20.897 16.9761 21.3868 16.8318 21.5513Z" fill="#1D1D1B" stroke="#1D1D1B" stroke-width="0.92"/>
</g>
</g>
<defs>
<clipPath id="clip0_92_939">
<rect width="23" height="24.83" fill="white"/>
</clipPath>
<clipPath id="clip1_92_939">
<rect width="23" height="24.84" fill="white" transform="translate(0 -0.00500488)"/>
</clipPath>
</defs>
</svg>
