<svg width="780" height="340" viewBox="0 0 780 340" fill="none" xmlns="http://www.w3.org/2000/svg">
<g clip-path="url(#clip0_97_231)">
<path d="M338.995 264.848C338.995 284.333 328.177 294.864 311.342 294.864C294.507 294.864 283.403 284.333 283.403 264.848V184.398H198.368L153.666 220.647V281.324C153.666 317.932 171.361 334.194 210.117 334.194H233.829V292.5H215.848C203.526 292.5 198.44 287.7 198.44 276.596V219.787H238.773V265.492C238.773 310.84 269.362 337.274 311.414 337.274C353.466 337.274 383.769 310.84 383.769 265.492V184.398H339.066V264.848H338.995Z" fill="#1D1D1B"/>
<path d="M509.348 197.579C499.748 187.048 485.636 181.389 468.514 181.389C426.82 181.389 394.368 215.345 394.368 259.116C394.368 302.888 426.82 337.202 468.514 337.202C486.853 337.202 502.112 330.325 511.712 318.576V334.194H554.05V168.136H509.348V197.579ZM474.532 294.864C453.828 294.864 439.142 280.178 439.142 259.116C439.142 238.055 454.186 223.369 474.532 223.369C494.877 223.369 509.635 238.413 509.635 259.116C509.635 279.82 494.59 294.864 474.532 294.864Z" fill="#1D1D1B"/>
<path d="M609.359 218.712H564.656V334.194H609.359V218.712Z" fill="#1D1D1B"/>
<path d="M700.123 181.389C655.063 181.389 619.96 215.345 619.96 259.116C619.96 302.888 655.063 337.202 700.123 337.202C745.184 337.202 780 302.959 780 259.116C780 215.274 745.184 181.389 700.123 181.389ZM700.123 295.151C679.42 295.151 664.734 280.107 664.734 259.116C664.734 238.126 679.42 223.369 700.123 223.369C720.827 223.369 735.226 238.413 735.226 259.116C735.226 279.82 720.54 295.151 700.123 295.151Z" fill="#1D1D1B"/>
<path d="M609.359 168.136H564.656V207.035H609.359V168.136Z" fill="#1D1D1B"/>
<path d="M116.556 185.329V193.782C103.589 185.974 86.9691 181.604 69.0595 181.604C51.1499 181.604 36.5356 186.26 21.6348 195.716C8.81154 203.955 2.29243 215.632 2.29243 230.533C2.29243 237.195 3.43865 243.141 5.65944 248.227C7.88024 253.314 10.7458 257.397 14.1844 260.334C17.5514 263.272 21.9214 265.922 27.3659 268.215C32.6672 270.435 37.6102 272.155 42.0518 273.158C46.4934 274.232 51.9379 275.164 58.3137 276.095C59.6749 276.31 61.8957 276.596 64.9045 277.098C67.9133 277.599 70.0625 277.957 71.4952 278.244C72.928 278.531 74.8622 278.889 77.3696 279.39C79.9486 279.892 81.7395 280.25 82.9574 280.608C84.3185 280.966 85.8229 281.539 87.5423 282.112C89.2616 282.757 90.4794 283.402 91.3391 284.047C92.1988 284.763 93.1301 285.623 94.133 286.554C94.9927 287.414 95.6374 288.273 95.9956 289.276C96.3538 290.279 96.5687 291.497 96.5687 292.93C96.5687 297.085 94.6345 300.309 90.5511 302.673C86.396 305.108 80.665 306.326 73.4295 306.326C62.8986 306.326 55.2333 303.461 50.7917 297.73L50.5051 297.371H0L0.358193 298.589C3.51029 308.977 10.0294 317.574 19.7006 324.164C34.6014 334.337 52.7259 339.495 73.6444 339.495C92.7719 339.495 110.467 334.623 124.866 325.454C137.976 317.072 144.638 304.893 144.638 289.205C144.638 281.969 143.349 275.522 140.77 270.077C138.191 264.633 135.182 260.263 131.672 257.111C128.233 253.959 123.433 251.165 117.416 248.801C111.541 246.436 106.24 244.789 101.798 243.858C97.4284 242.926 91.9122 241.923 84.8916 240.777C83.3156 240.562 81.3097 240.276 78.6591 239.774C76.0801 239.273 74.0026 238.914 72.4982 238.628C70.9938 238.341 69.0595 238.055 66.7671 237.625C64.5463 237.267 62.7553 236.909 61.4658 236.55C60.1763 236.192 58.7436 235.691 57.1675 235.189C55.5915 234.616 54.4453 234.115 53.5856 233.613C52.7259 233.112 51.8663 232.467 51.0066 231.751C50.2186 231.106 49.6455 230.389 49.2873 229.53C48.9291 228.742 48.7858 227.81 48.7858 226.808C48.7858 222.796 50.5768 219.859 54.1587 217.781C57.8839 215.632 62.9702 214.557 69.1311 214.557C77.5129 214.557 83.817 216.492 87.8288 220.36L88.1154 220.647H116.341H153.45V185.329H116.341H116.556Z" fill="#1D1D1B"/>
<path d="M498.393 94.0614L441.941 3.05176e-05H490.011L519.239 54.9468L548.468 3.05176e-05H596.537L540.086 94.0614V152.877H498.393V94.0614Z" fill="#1D1D1B"/>
<path d="M151.441 153.306V118.347L221.002 38.3983H154.379V0.501495H284.689V35.4611L215.128 115.41H287.698V153.306H151.513H151.441Z" fill="#1D1D1B"/>
<path d="M298.301 152.877V117.917L367.862 37.9684H301.238V3.05176e-05H431.548V34.9596L361.987 114.908H434.557V152.805H298.372L298.301 152.877Z" fill="#1D1D1B"/>
<path d="M109.894 0.501495V80.9515C109.894 100.437 99.0763 110.968 82.2413 110.968C65.4062 110.968 54.3023 100.437 54.3023 80.9515V0.501495H8.95508L9.59982 81.5963C9.59982 126.943 40.1895 153.378 82.2413 153.378C124.293 153.378 154.596 126.943 154.596 81.5963V38.4699L124.007 0.501495H109.894Z" fill="#1D1D1B"/>
</g>
<defs>
<clipPath id="clip0_97_231">
<rect width="780" height="339.638" fill="white"/>
</clipPath>
</defs>
</svg>
