<svg width="46" height="46" viewBox="0 0 46 46" fill="none" xmlns="http://www.w3.org/2000/svg">
<path d="M38.8738 22.8987C38.8738 31.8101 31.6839 39 22.7725 39C13.8611 39 8.84847 33.7848 7.12695 26.7468L11.8865 25.6329C13.1017 30.4937 17.5067 34.1392 22.7725 34.1392C28.0384 34.1392 34.013 29.1266 34.013 22.8987C34.013 16.6709 33.608 19.4051 32.8485 17.9367L37.2029 15.7595C38.2662 17.8861 38.8738 20.3165 38.8738 22.8987Z" fill="#1D1D1B"/>
<path d="M27.0255 9.68355L23.0255 25.076L27.0255 26.038L25.8103 30.6962L17.0508 28.3671L22.4179 8.41772L27.0255 9.68355Z" fill="#1D1D1B"/>
<path d="M17.1015 28.2658L21.1522 12.8734L16.0889 11.6582L17.2534 7L27.1268 9.58227L21.7091 29.5317L17.1015 28.2658Z" fill="#1D1D1B"/>
<path d="M28.3421 22.595C30.1318 22.595 31.5826 21.1441 31.5826 19.3545C31.5826 17.5648 30.1318 16.114 28.3421 16.114C26.5524 16.114 25.1016 17.5648 25.1016 19.3545C25.1016 21.1441 26.5524 22.595 28.3421 22.595Z" fill="#1D1D1B"/>
<path d="M18.2154 16.4684H12.3926V22.2911H18.2154V16.4684Z" fill="#1D1D1B"/>
</svg>
