<svg width="254" height="274" viewBox="0 0 254 274" fill="none" xmlns="http://www.w3.org/2000/svg">
<g clip-path="url(#clip0_92_380)">
<g clip-path="url(#clip1_92_380)">
<g clip-path="url(#clip2_92_380)">
<path d="M210.198 96.0013C213.198 100.705 216.809 105.141 219.548 110.021C258.811 180.026 201.1 267.707 120.704 256.699C70.4405 249.816 31.9111 202.021 36.2275 151.348C31.073 152.993 25.0617 159.407 19.5353 155.518C15.1517 152.433 17.2011 147.746 18.6934 143.708C24.5078 127.963 34.1639 108.903 41.3931 93.3534C51.1717 72.3199 62.0147 47.6532 73.4942 27.7741C76.4278 22.6969 77.5494 18.9527 84.4736 19.2942C95.8516 19.858 122.553 33.4504 134.435 38.2871C166.646 51.3958 199.179 63.9748 229.388 81.4541C231.166 82.5069 231.605 86.4921 231.525 88.4239C231.17 96.5918 215.675 94.9225 210.203 95.9945L210.198 96.0013ZM208.017 84.7909C178.731 69.405 147.466 56.4844 116.693 44.2156C106.584 40.1838 96.3094 36.0905 85.9888 32.8337L37.537 134.801C56.9957 126.305 76.553 117.777 96.5105 110.458C121.1 101.441 146.344 94.7066 172.048 89.8279L208.017 84.7909ZM50.3318 142.86C38.2767 205.889 98.8224 260.67 160.401 240.941C193.817 230.236 216.755 199.986 219.115 165.139C220.725 141.371 213.038 114.656 194.431 98.9502C170.887 102.259 147.473 106.798 124.618 113.584C99.1979 121.131 74.1676 131.41 50.3318 142.86Z" fill="#CAF55E"/>
<path d="M89.901 201.359C87.3304 204.665 81.5413 205.115 80.1399 200.575C77.6233 192.411 88.4474 183.128 96.1589 184.244C100.889 184.924 100.736 192.797 96.1586 194.113C103.299 200.349 109.305 206.224 118.342 209.788C141.343 218.866 172.721 210.13 182.325 185.741C184.552 180.078 183.319 176.562 184.477 171.958C185.739 166.923 195.207 165.416 197.08 170.854C199.18 176.956 193.71 191.138 190.4 196.607C172.385 226.402 131.586 234.71 102.808 215.606C97.8507 212.316 91.4982 207.206 89.901 201.359Z" fill="#CAF55E"/>
<path d="M183.521 122.875C188.306 121.184 191.515 126.174 192.015 130.332C194.142 148.184 180.14 169.817 160.271 161.899C152.782 158.916 139.983 145.224 147.259 137.555C153 131.502 157.359 142.686 159.969 146.086C164.261 151.669 168.927 152.709 174.843 148.249C183.114 142.009 176.59 125.327 183.516 122.881L183.521 122.875Z" fill="#CAF55E"/>
<path d="M97.6462 136.816C108.48 133.766 117.379 135.788 124.562 144.435C127.822 148.363 132.541 160.556 125.235 161.903C119.419 162.975 117.834 153.638 113.664 150.437C107.92 146.035 98.4636 148.236 94.8057 154.324C92.267 158.546 92.7818 161.649 91.6846 165.782C89.6778 173.358 79.6159 171.641 79.7619 162.636C79.9227 152.745 87.7089 139.606 97.6513 136.809L97.6462 136.816Z" fill="#CAF55E"/>
</g>
</g>
</g>
<defs>
<clipPath id="clip0_92_380">
<rect width="221.99" height="244.993" fill="white" transform="translate(0 30.895) rotate(-8)"/>
</clipPath>
<clipPath id="clip1_92_380">
<rect width="221.99" height="244.993" fill="white" transform="translate(0 30.895) rotate(-8)"/>
</clipPath>
<clipPath id="clip2_92_380">
<rect width="222" height="245" fill="white" transform="translate(0 30.8917) rotate(-8)"/>
</clipPath>
</defs>
</svg>
