<svg width="74" height="79" viewBox="0 0 74 79" fill="none" xmlns="http://www.w3.org/2000/svg">
<g clip-path="url(#clip0_92_689)">
<path d="M54.9091 42.0444C52.7007 37.9088 50.774 33.6865 49.1982 29.2681C47.5972 24.7747 45.8628 20.0753 45.4484 15.2979C45.2638 13.1966 46.1345 11.178 48.2836 10.4991C50.1018 9.92724 52.7318 10.6259 53.4238 12.6499C54.947 17.1132 55.8455 21.7485 57.2361 26.2562C58.5369 30.4802 60.0668 34.6624 61.7582 38.744C63.629 43.2543 57.224 46.3858 54.9029 42.0403L54.9091 42.0444Z" fill="#CAF55E"/>
<path d="M45.5556 47.5921C41.5431 44.6892 37.4591 41.8855 33.2996 39.2004C29.1555 36.5256 24.7358 34.1335 20.7696 31.2083C19.0935 29.9752 18.4118 27.7706 19.3844 25.8788C20.2389 24.2151 22.553 22.822 24.4606 23.7383C29.1404 25.9892 33.4716 29.022 37.7052 32.0205C41.852 34.9559 45.9059 38.016 49.8853 41.1731C51.521 42.4727 52.1645 44.714 50.9296 46.5449C49.7877 48.2378 47.2574 48.8203 45.5577 47.589L45.5556 47.5921Z" fill="#CAF55E"/>
<path d="M35.9875 57.1574C32.2266 56.3029 28.0165 55.7834 24.3242 56.064C22.2476 56.2251 20.1568 56.5728 18.1338 57.0646C15.7113 57.6527 13.8543 58.9437 11.1218 58.8006C6.59095 58.5646 5.32975 53.0778 8.24702 50.1817C10.1234 48.3194 13.6826 47.7795 16.242 47.3328C18.7982 46.8839 21.4177 46.6919 24.0143 46.7522C28.9479 46.8672 33.9509 47.8321 38.388 50.0128C42.7126 52.1356 40.7979 58.2558 35.9855 57.1605L35.9875 57.1574Z" fill="#CAF55E"/>
</g>
<defs>
<clipPath id="clip0_92_689">
<rect width="63.99" height="44.993" fill="white" transform="translate(73.0821 25.1591) rotate(124)"/>
</clipPath>
</defs>
</svg>
